<svg xmlns="http://www.w3.org/2000/svg" xmlns:xlink="http://www.w3.org/1999/xlink" width="40" height="40" viewBox="0 0 40 40">
  <defs>
    <clipPath id="clip-birth-icon">
      <rect width="40" height="40"/>
    </clipPath>
  </defs>
  <g id="birth-icon" clip-path="url(#clip-birth-icon)">
    <g id="birthday" transform="translate(4)">
      <g id="Group_22" data-name="Group 22" transform="translate(0)">
        <g id="Group_21" data-name="Group 21">
          <path id="Path_41" data-name="Path 41" d="M195.541,10.945a3.65,3.65,0,0,0,3.128-5.527L195.541,0l-3.128,5.418a3.65,3.65,0,0,0,3.128,5.527Z" transform="translate(-179.124)" fill="#fcf3bc"/>
          <path id="Path_42" data-name="Path 42" d="M69.922,152.981H60.8v-3.648H57.153v3.648H48.032a5.477,5.477,0,0,0-5.472,5.472v2.809a3.573,3.573,0,0,0,6.1,2.526l3.9-3.895,3.895,3.885a3.658,3.658,0,0,0,5.053,0l3.9-3.885,3.895,3.885a3.573,3.573,0,0,0,6.1-2.526v-2.8A5.5,5.5,0,0,0,69.922,152.981Z" transform="translate(-42.56 -136.564)" fill="#fcf3bc"/>
          <path id="Path_43" data-name="Path 43" d="M67.359,320.041h0L65.4,318.08l-1.97,1.961a6.463,6.463,0,0,1-8.92,0l-1.961-1.961-1.97,1.961a6.184,6.184,0,0,1-4.442,1.851,6.3,6.3,0,0,1-3.575-1.122v8.418a1.829,1.829,0,0,0,1.824,1.824H73.57a1.829,1.829,0,0,0,1.824-1.824v-8.418a6.28,6.28,0,0,1-8.035-.73Z" transform="translate(-42.56 -290.882)" fill="#fcf3bc"/>
        </g>
      </g>
    </g>
  </g>
</svg>
