<svg xmlns="http://www.w3.org/2000/svg" xmlns:xlink="http://www.w3.org/1999/xlink" width="40" height="40" viewBox="0 0 40 40">
  <defs>
    <clipPath id="clip-mail-icon">
      <rect width="40" height="40"/>
    </clipPath>
  </defs>
  <g id="mail-icon" clip-path="url(#clip-mail-icon)">
    <g id="black-back-closed-envelope-shape" transform="translate(2 6)">
      <g id="Group_23" data-name="Group 23" transform="translate(0 0)">
        <path id="Path_44" data-name="Path 44" d="M49.384,334.786a3.151,3.151,0,0,0,2.157-.814L41.1,323.528l-.723.52q-1.172.864-1.9,1.347a11.725,11.725,0,0,1-1.944.988,5.925,5.925,0,0,1-2.263.5h-.041a5.924,5.924,0,0,1-2.263-.5,11.688,11.688,0,0,1-1.944-.988q-.731-.483-1.9-1.347c-.218-.16-.46-.335-.721-.523L16.946,333.972a3.152,3.152,0,0,0,2.157.814Z" transform="translate(-15.812 -305.821)" fill="#fcf3bc"/>
        <path id="Path_45" data-name="Path 45" d="M2.078,200.345A10.907,10.907,0,0,1,0,198.555v15.891l9.206-9.206Q6.443,203.312,2.078,200.345Z" transform="translate(0 -189.216)" fill="#fcf3bc"/>
        <path id="Path_46" data-name="Path 46" d="M420.454,200.345q-4.2,2.845-7.145,4.9l9.2,9.2V198.555A11.353,11.353,0,0,1,420.454,200.345Z" transform="translate(-385.647 -189.216)" fill="#fcf3bc"/>
        <path id="Path_47" data-name="Path 47" d="M33.578,59.013H3.3A2.938,2.938,0,0,0,.86,60.082a4.151,4.151,0,0,0-.854,2.674,4.807,4.807,0,0,0,1.131,2.808,10.206,10.206,0,0,0,2.407,2.376q.7.494,4.217,2.932c1.266.877,2.367,1.642,3.313,2.3.806.562,1.5,1.049,2.076,1.452l.307.219.567.409q.669.484,1.111.782t1.07.668a6.241,6.241,0,0,0,1.183.555,3.273,3.273,0,0,0,1.029.185h.041a3.274,3.274,0,0,0,1.029-.185A6.227,6.227,0,0,0,20.67,76.7q.627-.37,1.07-.668t1.111-.782l.567-.408.308-.219,2.082-1.447,7.546-5.239a9.784,9.784,0,0,0,2.51-2.53A5.443,5.443,0,0,0,36.87,62.3a3.318,3.318,0,0,0-3.292-3.292Z" transform="translate(-0.006 -59.013)" fill="#fcf3bc"/>
      </g>
    </g>
  </g>
</svg>
