<svg xmlns="http://www.w3.org/2000/svg" xmlns:xlink="http://www.w3.org/1999/xlink" width="74" height="555" viewBox="0 0 74 555">
  <defs>
    <clipPath id="clip-pen">
      <rect width="74" height="555"/>
    </clipPath>
  </defs>
  <g id="pen" clip-path="url(#clip-pen)">
    <g id="Group_46" data-name="Group 46" transform="translate(-1758 -5718)">
      <g id="Group_44" data-name="Group 44" transform="translate(5)">
        <g id="Group_41" data-name="Group 41" transform="translate(394 -534)">
          <g id="Polygon_1" data-name="Polygon 1" transform="translate(1417 6804) rotate(180)" fill="#2ca6be">
            <path d="M 45.55562210083008 59 L 4.444378852844238 59 L 25 8.022059440612793 L 45.55562210083008 59 Z" stroke="none"/>
            <path d="M 25 16.04412841796875 L 8.888763427734375 56 L 41.11123657226562 56 L 25 16.04412841796875 M 25 0 L 50 62 L 0 62 L 25 0 Z" stroke="none" fill="#2ca6be"/>
          </g>
          <g id="Rectangle_44" data-name="Rectangle 44" transform="translate(1367 6266)" fill="#2ca6be" stroke="#2ca6be" stroke-width="6">
            <rect width="50" height="482" stroke="none"/>
            <rect x="3" y="3" width="44" height="476" fill="none"/>
          </g>
          <g id="Rectangle_45" data-name="Rectangle 45" transform="translate(1364 6252)" fill="#2ca6be" stroke="#2ca6be" stroke-width="6">
            <path d="M25,0h6A25,25,0,0,1,56,25V170a0,0,0,0,1,0,0H0a0,0,0,0,1,0,0V25A25,25,0,0,1,25,0Z" stroke="none"/>
            <path d="M25,3h6A22,22,0,0,1,53,25V164a3,3,0,0,1-3,3H6a3,3,0,0,1-3-3V25A22,22,0,0,1,25,3Z" fill="none"/>
          </g>
          <rect id="Rectangle_46" data-name="Rectangle 46" width="7" height="158" transform="translate(1426 6288)" fill="#2ca6be"/>
          <rect id="Rectangle_47" data-name="Rectangle 47" width="8" height="30" transform="translate(1420 6313)" fill="#2ca6be"/>
          <line id="Line_3" data-name="Line 3" x2="50" transform="translate(1367.5 6402.5)" fill="none" stroke="#2ca6be" stroke-width="6"/>
          <line id="Line_4" data-name="Line 4" x2="50" transform="translate(1367.5 6390.5)" fill="none" stroke="#2ca6be" stroke-width="6"/>
          <line id="Line_5" data-name="Line 5" y2="286" transform="translate(1401.5 6417.5)" fill="none" stroke="#2ca6be" stroke-width="6" stroke-dasharray="12 12"/>
          <line id="Line_6" data-name="Line 6" y2="12" transform="translate(1392 6792)" fill="none" stroke="#2ca6be" stroke-linecap="round" stroke-width="6"/>
        </g>
      </g>
      <g id="Group_43" data-name="Group 43">
        <g id="Group_41-2" data-name="Group 41" transform="translate(394 -534)">
          <g id="Polygon_1-2" data-name="Polygon 1" transform="translate(1417 6804) rotate(180)" fill="#ffe85e">
            <path d="M 45.55562210083008 59 L 4.444378852844238 59 L 25 8.022059440612793 L 45.55562210083008 59 Z" stroke="none"/>
            <path d="M 25 16.04412841796875 L 8.888763427734375 56 L 41.11123657226562 56 L 25 16.04412841796875 M 25 0 L 50 62 L 0 62 L 25 0 Z" stroke="none" fill="#0a3754"/>
          </g>
          <g id="Rectangle_44-2" data-name="Rectangle 44" transform="translate(1367 6266)" fill="#cbf8fb" stroke="#0a3754" stroke-width="6">
            <rect width="50" height="482" stroke="none"/>
            <rect x="3" y="3" width="44" height="476" fill="none"/>
          </g>
          <g id="Rectangle_45-2" data-name="Rectangle 45" transform="translate(1364 6252)" fill="#fdc635" stroke="#0a3754" stroke-width="6">
            <path d="M25,0h6A25,25,0,0,1,56,25V170a0,0,0,0,1,0,0H0a0,0,0,0,1,0,0V25A25,25,0,0,1,25,0Z" stroke="none"/>
            <path d="M25,3h6A22,22,0,0,1,53,25V164a3,3,0,0,1-3,3H6a3,3,0,0,1-3-3V25A22,22,0,0,1,25,3Z" fill="none"/>
          </g>
          <rect id="Rectangle_46-2" data-name="Rectangle 46" width="7" height="158" transform="translate(1426 6288)" fill="#0a3754"/>
          <rect id="Rectangle_47-2" data-name="Rectangle 47" width="8" height="30" transform="translate(1420 6313)" fill="#0a3754"/>
          <line id="Line_3-2" data-name="Line 3" x2="50" transform="translate(1367.5 6402.5)" fill="none" stroke="#0a3754" stroke-width="6"/>
          <line id="Line_4-2" data-name="Line 4" x2="50" transform="translate(1367.5 6390.5)" fill="none" stroke="#0a3754" stroke-width="6"/>
          <line id="Line_5-2" data-name="Line 5" y2="286" transform="translate(1401.5 6417.5)" fill="none" stroke="#0a3754" stroke-width="6" stroke-dasharray="12 12"/>
          <line id="Line_6-2" data-name="Line 6" y2="12" transform="translate(1392 6792)" fill="none" stroke="#0a3754" stroke-linecap="round" stroke-width="6"/>
        </g>
      </g>
    </g>
  </g>
</svg>
