<svg xmlns="http://www.w3.org/2000/svg" xmlns:xlink="http://www.w3.org/1999/xlink" width="40" height="40" viewBox="0 0 40 40">
  <defs>
    <clipPath id="clip-tel-icon">
      <rect width="40" height="40"/>
    </clipPath>
  </defs>
  <g id="tel-icon" clip-path="url(#clip-tel-icon)">
    <g id="call-answer" transform="translate(5 5)">
      <g id="Group_25" data-name="Group 25" transform="translate(0 0)">
        <g id="Group_24" data-name="Group 24">
          <path id="Path_48" data-name="Path 48" d="M29.1,23.881l-4.6-4.6a2.4,2.4,0,0,0-3.379.064L18.8,21.663l-.457-.254a23.044,23.044,0,0,1-5.57-4.028A23.172,23.172,0,0,1,8.741,11.8c-.086-.155-.168-.3-.249-.446L10.046,9.8l.764-.765a2.394,2.394,0,0,0,.062-3.379l-4.6-4.6A2.394,2.394,0,0,0,2.9,1.124l-1.3,1.3.035.035A7.491,7.491,0,0,0,.568,4.345a7.806,7.806,0,0,0-.475,1.91c-.607,5.032,1.692,9.63,7.932,15.87C16.651,30.749,23.6,30.1,23.9,30.066a7.766,7.766,0,0,0,1.915-.481,7.466,7.466,0,0,0,1.876-1.063l.028.025,1.312-1.285A2.4,2.4,0,0,0,29.1,23.881Z" transform="translate(0 -0.394)" fill="#fcf3bc"/>
        </g>
      </g>
    </g>
  </g>
</svg>
